<svg xmlns="http://www.w3.org/2000/svg" viewBox="0 0 13.05 13.42"><defs><style>.cls-1{fill:#1267a6;}</style></defs><g id="Layer_2" data-name="Layer 2"><g id="Layer_1-2" data-name="Layer 1"><path class="cls-1" d="M4.65,8.74c-1.53-.17-.15,1,.62,1.2A4.41,4.41,0,0,1,4.65,8.74Z"/><path class="cls-1" d="M6.22,8.55C5,8.47,4.93,8.77,5.67,9.68,6.53,10.82,6.37,9,6.22,8.55Z"/><path class="cls-1" d="M8.41,4.66c.22.1.56-.09.83-.12A3.49,3.49,0,0,0,7.81,3.48,4.53,4.53,0,0,1,8.41,4.66Z"/><path class="cls-1" d="M6.23,6.94c-1.15-.11-1.8,0-1.21,1.22C6.09,8.16,6.59,8.08,6.23,6.94Z"/><path class="cls-1" d="M6.25,5.31c-1.08-.22-1.68,0-1.38,1.17C6,6.56,6.59,6.56,6.25,5.31Z"/><path class="cls-1" d="M3.12,6.48c1.24.15,1.27-.14,1.37-1.28C3.59,4.49,2.94,5.62,3.12,6.48Z"/><path class="cls-1" d="M5.17,4.77c1.29.37,1.18-.4,1.13-1.44C5.82,3.25,5.09,4.37,5.17,4.77Z"/><path class="cls-1" d="M4.59,4.69a11.05,11.05,0,0,1,.65-1.21,3.41,3.41,0,0,0-1.4,1A6.3,6.3,0,0,0,4.59,4.69Z"/><path class="cls-1" d="M4.49,8.17C4.43,7,4.21,6.69,3.07,7,3.1,8,3.55,8.8,4.49,8.17Z"/><path class="cls-1" d="M9.94,6.94C8.72,6.79,8.66,7,8.56,8.18,9.47,8.89,10.1,7.82,9.94,6.94Z"/><path class="cls-1" d="M8.6,5.15a4,4,0,0,0,.19,1.33c.36-.07,1,.13,1.2-.08C9.9,5.46,9.65,4.67,8.6,5.15Z"/><path class="cls-1" d="M6.53,0c-8.71-.13-8.71,13.54,0,13.41C15.23,13.54,15.23-.13,6.53,0Zm3.86,7.45a4,4,0,0,1-4.12,3.19,4,4,0,0,1-2.73-6.5C6,1.08,11.28,3.63,10.39,7.45Z"/><path class="cls-1" d="M8,5.23c-1.1,0-1.51.13-1.18,1.25C8.06,6.56,8.66,6.53,8,5.23Z"/><path class="cls-1" d="M8.4,8.75a4.14,4.14,0,0,1-.61,1.18,3.38,3.38,0,0,0,1.45-1C9,8.84,8.58,8.62,8.4,8.75Z"/><path class="cls-1" d="M6.82,4.84c.38,0,.75,0,1.14-.07C7.3,3,6.39,2.83,6.82,4.84Z"/><path class="cls-1" d="M6.84,8.09c1.14.17,1.58.06,1.34-1.15C7.09,6.85,6.4,6.85,6.84,8.09Z"/><path class="cls-1" d="M7.91,8.62c-1.34-.38-1.19.42-1.15,1.5A2,2,0,0,0,7.91,8.62Z"/></g></g></svg>