<svg xmlns="http://www.w3.org/2000/svg" viewBox="0 0 12.45 12.82"><defs><style>.cls-1{fill:#fff;}</style></defs><g id="Layer_2" data-name="Layer 2"><g id="Layer_1-2" data-name="Layer 1"><path class="cls-1" d="M8.54,4.52a.43.43,0,0,1-.85,0A.43.43,0,0,1,8.54,4.52Z"/><path class="cls-1" d="M6.23,4.59c-2.36,0-2.36,3.67,0,3.64S8.59,4.55,6.23,4.59Zm0,3a1.19,1.19,0,0,1,0-2.38A1.19,1.19,0,0,1,6.23,7.6Z"/><path class="cls-1" d="M7.77,2.89c-1.63.07-5.12-.61-5.06,2,.08,1.62-.61,5.12,2,5.05,1.61-.09,5.12.63,5.05-2C9.67,6.36,10.34,2.8,7.77,2.89ZM9.13,7.73c.26,2.13-2.92,1.49-4.2,1.59-2.35.09-1.41-2.85-1.59-4.2C3.23,2.76,6.18,3.69,7.53,3.51,9.65,3.19,9.06,6.44,9.13,7.73Z"/><path class="cls-1" d="M6.23,0C-2.12-.12-2,13,6.23,12.81,14.49,13,14.58-.13,6.23,0Zm.68,12.42C-1.3,13.45-2.1.28,6.23.35,13.68.2,14.28,11.76,6.91,12.42Z"/></g></g></svg>