<svg xmlns="http://www.w3.org/2000/svg" viewBox="0 0 13.51 13.12"><defs><style>.cls-1{fill:#1267a6;}</style></defs><g id="Layer_2" data-name="Layer 2"><g id="Layer_1-2" data-name="Layer 1"><path class="cls-1" d="M13.28,5C11.41-3.48-1.9-.34.23,8.1,2.1,16.6,15.41,13.46,13.28,5Zm-9.37-.9c2,0,4-.08,6,0-3.27,3.58-3,3.56-6.25,0C3.75,4.15,3.83,4.12,3.91,4.12ZM3.29,8.39c0-1.3-.08-2.62,0-3.9l2.1,2.08L3.33,8.64A1.09,1.09,0,0,1,3.29,8.39ZM9.6,9c-2,0-4,.06-5.93,0l2.1-2.08c.59.89,1.4.86,2,0L9.87,9A1.6,1.6,0,0,1,9.6,9Zm.63-.62a1.09,1.09,0,0,1-.05.26L8.09,6.56c.7-.68,1.39-1.37,2.09-2.07C10.3,5.77,10.2,7.09,10.23,8.38Z"/></g></g></svg>