<svg xmlns="http://www.w3.org/2000/svg" viewBox="0 0 12.46 12.82"><defs><style>.cls-1{fill:#fff;}</style></defs><g id="Layer_2" data-name="Layer 2"><g id="Layer_1-2" data-name="Layer 1"><path class="cls-1" d="M2.63,5.18V9.93H4.21V5.18Zm.81-2.29a.82.82,0,1,0,0,1.64A.82.82,0,1,0,3.44,2.89ZM8.1,5.07a1.58,1.58,0,0,0-1.43.78v0h0s0,0,0,0V5.18H5.09c0,.44,0,4.75,0,4.75H6.67c.2-.82-.61-3.6.86-3.62s.63,2.84.8,3.62H9.92C9.89,8.41,10.37,4.84,8.1,5.07Z"/><path class="cls-1" d="M6.23,0C-2.12-.13-2,13,6.23,12.81,14.49,13,14.58-.13,6.23,0Zm.68,12.42C-1.3,13.45-2.1.28,6.23.35,13.68.2,14.27,11.76,6.91,12.42Z"/></g></g></svg>